<svg id="Capa_1" data-name="Capa 1" xmlns="http://www.w3.org/2000/svg" viewBox="0 0 456.79 287.75"><defs><style>.cls-1{fill:#fff;stroke:#000;stroke-miterlimit:10;stroke-width:14px;}</style></defs><path class="cls-1" d="M421.81,170.62C386.3,98,348.26,92.89,312.84,110.2c-10.75,5.25-20,12-26.68,20.82H191.38c-6.71-8.83-15.94-15.57-26.68-20.82C129.28,92.89,91.23,98,55.73,170.62S.66,356,36.08,373.36c24.62,12,69.27-25.23,106.15-73.44h193c36.87,48.21,81.52,85.46,106.14,73.44C476.87,356,457.31,243.3,421.81,170.62ZM182.69,216a5.37,5.37,0,0,1-5.43,5.32h-26V248a5.37,5.37,0,0,1-5.43,5.31h-18.4A5.38,5.38,0,0,1,122,248V221.35H96A5.38,5.38,0,0,1,90.57,216V198A5.38,5.38,0,0,1,96,192.68h26V166a5.38,5.38,0,0,1,5.42-5.31h18.4a5.37,5.37,0,0,1,5.43,5.31v26.66h26A5.38,5.38,0,0,1,182.7,198v18Zm168.15-45.38a16.59,16.59,0,1,1-16.59-16.6A16.59,16.59,0,0,1,350.84,170.65ZM300,221.45a16.6,16.6,0,1,1,16.59-16.6A16.59,16.59,0,0,1,300,221.45Zm68.48,0a16.6,16.6,0,1,1,16.59-16.6A16.59,16.59,0,0,1,368.52,221.45Zm-34.27,34.2a16.59,16.59,0,1,1,16.59-16.59A16.57,16.57,0,0,1,334.25,255.65Z" transform="translate(-10.36 -94.88)"/></svg>